<svg xmlns="http://www.w3.org/2000/svg" width="584" height="120" viewBox="0 0 584 120">
  <g fill="none" fill-rule="evenodd">
    <g fill-rule="nonzero">
      <path fill="#FFD860" d="M36.6713287,83.5804196 C30.7132867,77.5384615 26.9370629,69.1468531 27.020979,60 C27.020979,50.7692308 30.7972028,42.4615385 36.8391608,36.5034965 C41.958042,31.3846154 42.041958,23.1608392 36.9230769,18.041958 C31.8041958,12.9230769 23.5804196,12.8391608 18.3776224,17.958042 C7.63636364,28.6153846 0.923076923,43.4685315 0.839160839,59.9160839 C0.755244755,76.3636364 7.38461538,91.2167832 18.1258741,102.041958 C23.2447552,107.160839 31.4685315,107.244755 36.6713287,102.125874 C41.7062937,97.006993 41.7902098,88.6993007 36.6713287,83.5804196 Z"/>
      <path fill="#3AB2E6" d="M36.8391608,36.5034965 C42.8811189,30.5454545 51.2727273,26.7692308 60.4195804,26.8531469 C69.6503497,26.8531469 77.958042,30.6293706 83.9160839,36.6713287 C89.034965,41.7902098 97.2587413,41.8741259 102.377622,36.7552448 C107.496503,31.6363636 107.58042,23.4125874 102.461538,18.2097902 C91.7202797,7.38461538 76.8671329,0.671328671 60.5034965,0.587412587 C44.1398601,0.587412587 29.2027972,7.13286713 18.4615385,17.8741259 C13.3426573,22.993007 13.2587413,31.2167832 18.3776224,36.4195804 C23.4125874,41.5384615 31.7202797,41.5384615 36.8391608,36.5034965 Z"/>
      <path fill="#ED5C68" d="M83.8321678,83.7482517 C77.7902098,89.7062937 69.3986014,93.4825175 60.2517483,93.3986014 C51.020979,93.3986014 42.7132867,89.6223776 36.7552448,83.5804196 C31.6363636,78.4615385 23.4125874,78.3776224 18.2937063,83.4965035 C13.1748252,88.6153846 13.0909091,96.8391608 18.2097902,102.041958 C28.951049,112.867133 43.8041958,119.58042 60.1678322,119.664336 C76.6153846,119.748252 91.4685315,113.118881 102.293706,102.377622 C107.412587,97.2587413 107.496503,89.034965 102.377622,83.8321678 C97.1748252,78.7132867 88.951049,78.6293706 83.8321678,83.7482517 Z"/>
      <path fill="#318BC5" d="M36.8391608,36.5034965 C31.7202797,41.6223776 23.4125874,41.5384615 18.2937063,36.4195804 C13.1748252,31.3006993 13.2587413,22.993007 18.3776224,17.958042 C23.4965035,12.8391608 31.8041958,12.9230769 36.9230769,18.041958 C42.041958,23.0769231 41.958042,31.3846154 36.8391608,36.5034965 Z"/>
      <path fill="#D4465F" d="M36.5874126,102.041958 C31.4685315,107.160839 23.1608392,107.076923 18.041958,101.958042 C12.9230769,96.8391608 13.006993,88.5314685 18.1258741,83.4965035 C23.2447552,78.3776224 31.5524476,78.4615385 36.6713287,83.5804196 C41.7902098,88.6993007 41.7062937,97.006993 36.5874126,102.041958 Z"/>
    </g>
    <path fill="#333333" d="M160.783217,72.8391608 C164.559441,69.986014 165.062937,71.5804196 168.251748,74.7692308 C169.846154,76.3636364 174.20979,79.1328671 171.356643,81.4825175 C165.398601,86.3496503 160.027972,88.5314685 152.391608,88.5314685 C135.188811,88.4475524 123.020979,75.6083916 124.027972,58.5734266 C124.447552,50.9370629 127.468531,43.7202797 133.426573,38.7692308 C138.881119,34.1538462 145.678322,32.1398601 152.811189,32.3076923 C156.41958,32.3916084 159.608392,32.8951049 162.965035,34.3216783 C165.146853,35.1608392 167.244755,36.1678322 169.090909,37.5944056 C172.867133,40.5314685 171.104895,42.2097902 168.167832,45.1468531 C167.496503,45.8181818 166.825175,46.4895105 166.237762,47.1608392 C164.727273,48.6713287 163.72028,49.7622378 161.706294,48.3356643 C157.846154,45.6503497 152.979021,44.2237762 148.363636,45.3986014 C133.51049,49.1748252 134.181818,75.6083916 152.391608,75.6923077 C155.244755,75.7762238 158.433566,74.6013986 160.783217,72.8391608 Z M573.65035,88.8671329 C571.132867,88.8671329 569.118881,86.8531469 569.118881,84.3356643 L569.370629,25.7622378 C569.370629,23.2447552 571.384615,21.2307692 573.902098,21.2307692 L578.769231,21.2307692 C581.286713,21.2307692 583.300699,23.2447552 583.300699,25.7622378 L583.048951,84.3356643 C583.048951,86.8531469 581.034965,88.8671329 578.517483,88.8671329 L573.65035,88.8671329 Z M548.13986,82.0699301 C542.853147,87.020979 537.818182,89.6223776 530.34965,89.6223776 C515.244755,89.5384615 508.027972,77.034965 508.027972,63.020979 L508.111888,39.1888112 C508.111888,36.6713287 510.125874,34.6573427 512.643357,34.6573427 L517.51049,34.6573427 C520.027972,34.6573427 522.041958,36.6713287 522.041958,39.1888112 L521.958042,63.020979 C521.958042,70.8251748 526.153846,76.951049 534.377622,76.951049 C542.517483,76.951049 547.636364,70.0699301 547.72028,62.3496503 L547.72028,53.8741259 C547.636364,53.5384615 547.636364,53.2027972 547.636364,52.8671329 L547.72028,39.3566434 C547.72028,36.8391608 549.734266,34.8251748 552.251748,34.8251748 L557.118881,34.8251748 C559.636364,34.8251748 561.65035,36.8391608 561.65035,39.3566434 L561.482517,84.3356643 C561.482517,86.7692308 559.468531,88.7832168 556.951049,88.7832168 L552.839161,88.7832168 C550.321678,88.7832168 548.559441,86.6853147 548.391608,84.3356643 L548.13986,82.0699301 Z M490.237762,34.8251748 L499.636364,34.8251748 C502.153846,34.8251748 504.083916,36.9230769 504.083916,39.4405594 L504.083916,42.5454545 C504.083916,44.979021 502.06993,47.0769231 499.552448,47.0769231 L490.153846,47.0769231 L489.986014,84.0839161 C489.986014,86.6013986 487.972028,88.6153846 485.454545,88.6153846 L480.587413,88.6153846 C478.06993,88.6153846 476.055944,86.6013986 476.055944,84.0839161 L476.223776,32.8951049 C476.223776,21.7342657 482.601399,12.9230769 494.013986,11.9160839 C494.34965,11.9160839 494.601399,11.8321678 494.937063,11.8321678 C495.608392,11.7482517 496.27972,11.8321678 496.951049,11.8321678 L501.314685,11.8321678 C503.832168,11.8321678 505.762238,13.9300699 505.762238,16.4475524 L505.762238,19.3006993 C505.762238,21.7342657 503.748252,23.8321678 501.230769,23.8321678 L498.041958,23.8321678 C497.958042,23.8321678 497.874126,23.8321678 497.706294,23.8321678 C492.335664,23.8321678 490.06993,27.9440559 489.986014,32.979021 L490.237762,34.8251748 Z M456.503497,34.6573427 L466.825175,34.6573427 C469.258741,34.6573427 471.272727,36.6713287 471.272727,39.1888112 L471.272727,42.2937063 C471.272727,44.7272727 469.258741,46.7412587 466.741259,46.7412587 L456.41958,46.7412587 L456.335664,69.3986014 C456.335664,73.7622378 458.433566,76.2797203 462.797203,76.2797203 L464.895105,76.2797203 C467.328671,76.2797203 469.342657,78.2937063 469.342657,80.8111888 L469.342657,83.9160839 C469.342657,86.3496503 467.328671,88.3636364 464.811189,88.3636364 L460.867133,88.3636364 C460.111888,88.3636364 459.440559,88.3636364 458.685315,88.2797203 C447.524476,87.5244755 442.573427,80.3076923 442.573427,69.3986014 C442.657343,54.7132867 442.657343,40.1118881 442.741259,25.4265734 C442.741259,22.993007 444.755245,20.979021 447.272727,20.979021 L452.055944,20.979021 C454.48951,20.979021 456.503497,22.993007 456.503497,25.5104895 L456.503497,34.6573427 Z M307.216783,34.0699301 L317.538462,34.0699301 C319.972028,34.0699301 321.986014,36.0839161 321.986014,38.6013986 L321.986014,41.7062937 C321.986014,44.1398601 319.972028,46.1538462 317.454545,46.1538462 L307.132867,46.1538462 L307.132867,68.8111888 C307.132867,73.1748252 309.230769,75.6923077 313.594406,75.6923077 L315.692308,75.6923077 C318.125874,75.6923077 320.13986,77.7062937 320.13986,80.2237762 L320.13986,83.3286713 C320.13986,85.7622378 318.125874,87.7762238 315.608392,87.7762238 L312.503497,87.7762238 C300.335664,87.6923077 293.286713,82.4895105 293.286713,68.8111888 C293.370629,54.1258741 293.370629,39.5244755 293.454545,24.8391608 C293.454545,22.4055944 295.468531,20.3916084 297.986014,20.3916084 L302.769231,20.3916084 C305.202797,20.3916084 307.216783,22.4055944 307.216783,24.9230769 L307.216783,34.0699301 Z M246.629371,40.4475524 C251.58042,35.8321678 256.951049,32.8951049 263.916084,32.8951049 C279.020979,32.979021 286.825175,45.3146853 286.741259,59.4965035 L286.657343,83.3286713 C286.657343,85.8461538 284.643357,87.8601399 282.125874,87.8601399 L277.258741,87.8601399 C274.741259,87.8601399 272.727273,85.8461538 272.727273,83.3286713 L272.811189,59.6643357 C272.811189,51.8601399 268.615385,45.7342657 260.391608,45.7342657 C252.251748,45.7342657 247.132867,52.5314685 247.048951,60.2517483 L246.965035,83.3286713 C246.965035,85.7622378 244.951049,87.7762238 242.433566,87.7762238 L237.65035,87.7762238 C235.216783,87.7762238 233.202797,85.7622378 233.202797,83.2447552 C233.286713,68.8951049 233.286713,54.4615385 233.370629,40.1118881 L233.370629,38.1818182 C233.370629,35.7482517 235.384615,33.7342657 237.902098,33.7342657 L242.013986,33.7342657 C244.531469,33.7342657 246.293706,35.8321678 246.461538,38.1818182 L246.629371,40.4475524 Z M396.167832,41.034965 C401.118881,36.4195804 406.48951,33.4825175 413.454545,33.4825175 C428.559441,33.5664336 436.363636,45.9020979 436.27972,60.0839161 L436.195804,83.9160839 C436.195804,86.4335664 434.181818,88.4475524 431.664336,88.4475524 L426.797203,88.4475524 C424.27972,88.4475524 422.265734,86.4335664 422.265734,83.9160839 L422.34965,60.2517483 C422.34965,52.4475524 418.153846,46.3216783 409.93007,46.3216783 C401.79021,46.3216783 396.671329,53.1188811 396.587413,60.8391608 L396.503497,83.9160839 C396.503497,86.3496503 394.48951,88.3636364 391.972028,88.3636364 L387.188811,88.3636364 C384.755245,88.3636364 382.741259,86.3496503 382.741259,83.8321678 L382.909091,38.7692308 C382.909091,36.3356643 384.923077,34.3216783 387.440559,34.3216783 L391.552448,34.3216783 C394.06993,34.3216783 395.832168,36.4195804 396,38.7692308 L396.167832,41.034965 Z M200.979021,32.4755245 C184.615385,32.3916084 173.034965,44.2237762 172.951049,60.5034965 C172.867133,76.951049 184.27972,88.6153846 200.811189,88.6993007 C217.342657,88.7832168 228.923077,77.2027972 229.006993,60.6713287 C229.090909,44.4755245 217.258741,32.5594406 200.979021,32.4755245 Z M336.839161,66.1258741 C338.013986,73.6783217 345.230769,76.7832168 352.27972,76.8671329 C355.636364,76.8671329 359.496503,76.027972 362.517483,74.6013986 C363.020979,74.3496503 363.524476,74.1818182 364.027972,73.8461538 C365.706294,72.9230769 367.216783,72.3356643 368.727273,73.8461538 C369.566434,74.6853147 370.321678,75.5244755 371.160839,76.2797203 C371.916084,77.034965 372.671329,77.7902098 373.342657,78.7132867 C375.608392,81.5664336 374.013986,82.2377622 371.412587,84 C365.874126,87.6923077 358.657343,89.5384615 352.027972,89.5384615 C334.237762,89.4545455 322.48951,78.6293706 322.48951,60.6713287 C322.573427,43.7202797 334.321678,32.4755245 351.272727,32.5594406 C368.559441,32.6433566 378.377622,42.7972028 378.629371,60.0839161 C378.713287,64.7832168 378.881119,66.2937063 374.013986,66.2937063 L336.839161,66.1258741 Z M200.979021,45.1468531 C209.454545,45.1468531 215.076923,52.5314685 215.076923,60.6713287 C215.076923,69.1468531 209.79021,75.9440559 200.895105,75.9440559 C192,75.9440559 186.797203,69.0629371 186.797203,60.5874126 C186.881119,52.1958042 192.167832,45.1468531 200.979021,45.1468531 Z M337.174825,54.4615385 L365.034965,54.5454545 C364.027972,47.5804196 358.237762,44.8111888 351.608392,44.8111888 C344.979021,44.8111888 339.272727,47.9160839 337.174825,54.4615385 Z"/>
  </g>
</svg>
