<?xml version="1.0" encoding="UTF-8" standalone="no"?>
<svg
   xmlns:dc="http://purl.org/dc/elements/1.1/"
   xmlns:cc="http://creativecommons.org/ns#"
   xmlns:rdf="http://www.w3.org/1999/02/22-rdf-syntax-ns#"
   xmlns:svg="http://www.w3.org/2000/svg"
   xmlns="http://www.w3.org/2000/svg"
   xmlns:sodipodi="http://sodipodi.sourceforge.net/DTD/sodipodi-0.dtd"
   xmlns:inkscape="http://www.inkscape.org/namespaces/inkscape"
   inkscape:version="1.0 (4035a4fb49, 2020-05-01)"
   width="220"
   sodipodi:docname="logo-sanity1.svg"
   viewBox="0 0 880 176"
   fill="none"
   height="44"
   version="1.1"
   id="svg36">
  <sodipodi:namedview
     inkscape:current-layer="svg36"
     inkscape:window-maximized="1"
     inkscape:window-y="-8"
     inkscape:window-x="-8"
     inkscape:cy="16.207254"
     inkscape:cx="29.120648"
     inkscape:zoom="2.4976191"
     viewbox-height="88"
     viewbox-width="420"
     scale-x="4"
     showgrid="false"
     id="namedview88"
     inkscape:window-height="1017"
     inkscape:window-width="1920"
     inkscape:pageshadow="2"
     inkscape:pageopacity="0"
     guidetolerance="10"
     gridtolerance="10"
     objecttolerance="10"
     borderopacity="1"
     bordercolor="#666666"
     pagecolor="#ffffff" />
  <metadata
     id="metadata42">
    <rdf:RDF>
      <cc:Work
         rdf:about="">
        <dc:format>image/svg+xml</dc:format>
        <dc:type
           rdf:resource="http://purl.org/dc/dcmitype/StillImage" />
        <dc:title>Sanity</dc:title>
      </cc:Work>
    </rdf:RDF>
  </metadata>
  <defs
     id="defs40" />
  <title
     id="title2">Sanity</title>
  <path
     style="stroke-width:8.35913"
     opacity="0.7"
     d="M 651.67063,61.807062 V 170.56085 H 615.92535 V 80.374263 Z"
     fill="#fa1607"
     id="path4" />
  <path
     style="stroke-width:8.35913"
     opacity="0.7"
     d="m 173.29305,173.29595 83.53188,-43.67558 -10.29761,-26.67397 -54.99383,25.6458 z"
     fill="#fa1607"
     id="path6" />
  <path
     style="stroke-width:8.35913"
     opacity="0.5"
     d="M 615.92535,80.281478 706.54829,33.905645 691.23688,8.0118388 615.92535,44.815974 Z"
     fill="#fa1607"
     id="path8" />
  <path
     style="stroke-width:8.35913"
     opacity="0.7"
     d="M 360.69959,53.194823 V 170.56085 H 326.61276 V 3.4146552 Z"
     fill="#fa1607"
     id="path10" />
  <path
     style="stroke-width:8.35913"
     opacity="0.5"
     d="M 224.94241,46.706806 173.29305,173.29595 146.72776,150.4279 208.2693,3.4146552 Z"
     fill="#fa1607"
     id="path12" />
  <path
     style="stroke-width:8.35913"
     d="m 208.2693,3.4146552 h 35.21197 L 308.60635,170.56085 h -36.04202 z"
     fill="#fa1607"
     id="path14" />
  <path
     style="stroke-width:8.35913"
     d="M 365.97168,3.4146552 441.04665,117.60914 v 52.95171 L 326.61276,3.4146552 Z"
     fill="#fa1607"
     id="path16" />
  <path
     style="stroke-width:8.35913"
     d="M 540.8203,3.4146552 H 505.34083 V 170.5901 h 35.47947 z"
     fill="#fa1607"
     id="path18" />
  <path
     style="stroke-width:8.35913"
     d="M 615.92535,33.905395 H 561.31437 V 3.4146552 h 127.19828 l 18.03564,30.4907398 h -54.87766 z"
     fill="#fa1607"
     id="path20" />
  <path
     style="stroke-width:8.35913"
     opacity="0.5"
     d="m 811.2973,107.136 v 63.42485 H 776.08449 V 107.136"
     fill="#fa1607"
     id="path22" />
  <path
     style="stroke-width:8.35913"
     d="M 776.08449,107.13516 835.66916,3.4146552 h 37.40708 L 811.2973,107.13516 Z"
     fill="#fa1607"
     id="path24" />
  <path
     style="stroke-width:8.35913"
     opacity="0.7"
     d="M 776.08533,107.13516 714.84055,3.4146552 h 38.52969 l 41.49135,71.0771268 z"
     fill="#fa1607"
     id="path26" />
  <path
     style="stroke-width:8.35913"
     d="m 14.554634,22.704586 c 0,23.275311 14.630054,37.124205 43.91967,44.42682 l 31.036924,7.069895 c 27.719692,6.254882 44.600942,21.791149 44.600942,47.103409 0.21566,11.02736 -3.43393,21.79224 -10.33606,30.49074 0,-25.25375 -13.29686,-38.89918 -45.370645,-47.10366 L 47.931194,97.88412 C 23.528069,92.413909 4.6926902,79.642004 4.6926902,52.147928 4.5643359,41.530503 8.0336815,31.172545 14.554634,22.704586"
     fill="#fa1607"
     id="path28" />
  <path
     style="stroke-width:8.35913"
     opacity="0.7"
     d="M 441.04665,109.02683 V 3.4146552 h 34.08683 V 170.56085 h -34.08683 z"
     fill="#fa1607"
     id="path30" />
  <path
     style="stroke-width:8.35913"
     opacity="0.7"
     d="m 104.70393,115.10726 c 13.23751,8.32067 19.04209,19.95824 19.04209,36.65893 -10.95714,13.79005 -30.207367,21.52976 -52.833591,21.52976 -38.085419,0 -64.7393464,-18.41682 -70.662429,-50.42056 h 36.575094 c 4.708778,14.69283 17.176912,21.5005 33.820763,21.5005 20.316515,0 33.820683,-10.64869 34.087333,-29.32715"
     fill="#fa1607"
     id="path32" />
  <path
     style="stroke-width:8.35913"
     opacity="0.7"
     d="M 33.566708,57.210046 C 27.52164,53.680657 22.562172,48.609176 19.214594,42.533933 15.8671,36.458688 14.25638,29.606381 14.553547,22.704335 25.12625,9.0300635 43.517492,0.679993 65.936327,0.679993 c 38.796033,0 61.244453,20.133175 66.782373,48.470937 H 97.535986 C 93.656518,37.978711 83.94238,29.279622 66.232491,29.279622 c -18.92422,0 -31.836557,10.822976 -32.577009,27.930424"
     fill="#fa1607"
     id="path34" />
</svg>
