<?xml version="1.0" encoding="UTF-8" standalone="no"?>
<svg
   width="116.35654"
   height="29.38518"
   version="1.1"
   id="svg157"
   xmlns="http://www.w3.org/2000/svg"
   xmlns:svg="http://www.w3.org/2000/svg">
  <defs
     id="defs161" />
  <path
     d="m 37.575415,11.504056 c 0,-2.109867 -2.024153,-4.32259 -5.542357,-4.32259 -3.945451,0 -8.277272,2.905023 -8.940562,8.703202 -0.677794,5.854881 2.949858,8.456611 6.606522,8.456611 3.656664,0 5.571368,-1.430753 7.529589,-3.338864 -1.683939,-2.123055 -3.85842,-1.141966 -4.27512,-0.925705 a 4.3647878,4.3647878 0 0 1 -2.260195,0.549884 c -1.410973,0 -2.850958,-0.635598 -2.850958,-3.280843 9.040782,-0.896694 9.731763,-3.745015 9.731763,-5.841695 z m -4.480829,0.34681 c -0.05803,0.650102 -0.316481,1.763057 -4.894892,2.386786 0.962626,-3.44172 2.80876,-3.700179 3.656664,-3.700179 a 1.1986683,1.1986683 0 0 1 1.247458,1.31603 z M 17.782224,12.415255 15.680269,19.050788 14.196768,7.529594 c -3.309854,0 -5.0900546,2.370963 -6.0183956,4.871156 L 5.6148841,19.065293 5.254888,12.471957 C 5.0597252,9.407376 2.2615139,7.54278 0,7.54278 l 2.7349153,16.667951 c 3.4680942,-0.01319 5.3406011,-2.370964 6.3203711,-4.871155 l 2.1678876,-5.666313 c 0.01978,0.230767 1.498006,10.538787 1.498006,10.538787 3.483919,0 5.356425,-2.211405 6.359931,-4.625884 L 23.960179,7.544098 c -3.435127,0 -5.245658,2.356459 -6.180592,4.871157 z M 50.361211,7.140587 c -2.145471,0 -3.784575,1.170976 -5.169174,2.890517 v -0.01319 L 46.428946,0 c -2.850958,0 -5.169174,2.487006 -5.614884,6.187186 l -2.144153,17.89431 c 1.641741,0 3.3837,-0.477357 4.319953,-1.69185 0.836035,1.083946 2.08745,1.951628 3.945452,1.951628 4.80786,0 8.105846,-5.60829 8.105846,-10.87109 C 55.01215,8.670235 52.693933,7.153769 50.375716,7.153769 Z m -0.448347,8.601665 c -0.501093,2.934034 -2.130966,4.929177 -3.69886,4.929177 -1.567896,0 -2.260196,-0.708125 -2.260196,-0.708125 0.303293,-2.5714 0.490545,-4.148525 1.065483,-5.508072 0.574939,-1.359545 1.943716,-3.527434 3.369194,-3.527434 1.397788,0 2.030747,1.864595 1.525698,4.813135 z M 67.031799,7.530913 H 63.67711 L 63.6903,7.356848 c 0.230766,-2.196899 0.749003,-3.35337 2.457995,-3.541939 1.167021,-0.116044 1.685257,-0.72263 1.814486,-1.387238 l 0.418017,-2.327447 c -6.725201,-0.04352 -8.85353,2.874694 -9.395502,7.329151 l -0.01319,0.101534 h -0.07252 c -1.094494,0 -2.302393,1.243503 -2.505468,2.819309 l -0.07253,0.577577 h 2.247008 l -1.885693,15.63939 -0.577576,2.804805 c 0.07252,0 0.158239,0.01319 0.229448,0.01319 3.151614,-0.116043 5.169174,-2.616235 5.614884,-6.245207 L 63.421291,10.92516 h 1.054934 c 1.036472,0 2.247008,-1.041746 2.457995,-2.775794 z M 84.480401,7.240806 c -3.872925,0 -7.529589,2.861507 -8.650455,7.358162 -1.120868,4.496654 0.577576,9.814838 6.276854,9.814838 5.69928,0 8.962981,-5.538402 8.962981,-10.148461 0.0053,-4.582368 -3.088319,-7.025859 -6.588061,-7.025859 z m 1.569214,8.355073 c -0.200438,2.03866 -1.094494,5.132253 -3.54194,5.132253 -2.447446,0 -2.11646,-3.613148 -1.879101,-5.334008 0.259778,-1.835585 1.281745,-4.45182 3.483919,-4.45182 1.980637,0 2.16657,2.356458 1.938441,4.654894 z m 24.157975,-3.195129 -2.10195,6.635532 c -0.0567,-0.520873 -1.48218,-11.521193 -1.48218,-11.521193 -3.30986,0 -5.08215,2.370963 -6.01049,4.871155 l -2.56349,6.664544 C 98.03628,18.573429 97.68949,12.457452 97.68949,12.457452 97.48114,9.39287 94.685565,7.528274 92.414821,7.528274 l 2.720409,16.667952 c 3.46809,-0.01319 5.3406,-2.370964 6.32037,-4.871156 l 2.15998,-5.666312 c 0.0132,0.230766 1.498,10.538786 1.498,10.538786 3.48392,0 5.34852,-2.211404 6.35993,-4.625883 l 4.88303,-12.042067 c -3.4259,0 -5.24038,2.356458 -6.16213,4.871156 z M 70.199238,0.097586 67.37729,22.950085 66.799714,25.769396 c 0.07121,0 0.15824,0.01319 0.229448,0.01319 3.035572,-0.04352 5.195547,-2.716454 5.600379,-6.085648 L 74.255458,6.585432 C 74.748639,2.58064 72.373719,0.094953 70.199238,0.094953 Z"
     fill="#4353ff"
     id="path155"
     style="stroke-width:1.31867" />
</svg>
