<?xml version="1.0" encoding="UTF-8" standalone="no"?>
<!-- Created with Inkscape (http://www.inkscape.org/) -->

<svg
   xmlns:dc="http://purl.org/dc/elements/1.1/"
   xmlns:cc="http://creativecommons.org/ns#"
   xmlns:rdf="http://www.w3.org/1999/02/22-rdf-syntax-ns#"
   xmlns:svg="http://www.w3.org/2000/svg"
   xmlns="http://www.w3.org/2000/svg"
   xmlns:sodipodi="http://sodipodi.sourceforge.net/DTD/sodipodi-0.dtd"
   xmlns:inkscape="http://www.inkscape.org/namespaces/inkscape"
   version="1.1"
   id="svg3713"
   xml:space="preserve"
   width="5100"
   height="1000"
   viewBox="0 0 5100 999.99998"
   sodipodi:docname="text-logo.svg"
   inkscape:version="0.92.3 (2405546, 2018-03-11)"
   inkscape:export-filename="G:\My Drive\Engagements\Cloudpress\Logo\text-logo.png"
   inkscape:export-xdpi="3.4720056"
   inkscape:export-ydpi="3.4720056"><metadata
     id="metadata3719"><rdf:RDF><cc:Work
         rdf:about=""><dc:format>image/svg+xml</dc:format><dc:type
           rdf:resource="http://purl.org/dc/dcmitype/StillImage" /><dc:title /></cc:Work></rdf:RDF></metadata><defs
     id="defs3717"><clipPath
       clipPathUnits="userSpaceOnUse"
       id="clipPath3729"><path
         d="M 0,1024 H 1024 V 0 H 0 Z"
         id="path3727"
         inkscape:connector-curvature="0" /></clipPath></defs><sodipodi:namedview
     pagecolor="#ffffff"
     bordercolor="#666666"
     borderopacity="1"
     objecttolerance="10"
     gridtolerance="10"
     guidetolerance="10"
     inkscape:pageopacity="0"
     inkscape:pageshadow="2"
     inkscape:window-width="1920"
     inkscape:window-height="1017"
     id="namedview3715"
     showgrid="false"
     units="px"
     inkscape:zoom="0.15527345"
     inkscape:cx="2246.3085"
     inkscape:cy="-100.57365"
     inkscape:window-x="1358"
     inkscape:window-y="-8"
     inkscape:window-maximized="1"
     inkscape:current-layer="g3721"
     inkscape:pagecheckerboard="true" /><g
     id="g3721"
     inkscape:groupmode="layer"
     inkscape:label="FullColor_1024x1024"
     transform="matrix(1.3333333,0,0,-1.3333333,0,999.9998)"><g
   id="g868"
   transform="matrix(1.131706,0,0,1.131706,0.71584538,-131.46483)"><g
     style="fill:#2c7be5;fill-opacity:1"
     transform="matrix(0.86309608,0,0,0.86309608,315.65147,287.89044)"
     id="g3731"><path
       inkscape:connector-curvature="0"
       id="path3733"
       style="fill:#2c7be5;fill-opacity:1;fill-rule:nonzero;stroke:none"
       d="m 0,0 h -100.898 c -12.731,0 -23.049,-10.336 -23.049,-23.059 0,-12.728 10.318,-23.028 23.049,-23.028 H 0 c 12.731,0 23.049,10.3 23.049,23.028 C 23.049,-10.336 12.731,0 0,0" /></g><g
     style="fill:#2c7be5;fill-opacity:1"
     transform="matrix(0.86309608,0,0,0.86309608,166.76067,326.00244)"
     id="g3735"><path
       inkscape:connector-curvature="0"
       id="path3737"
       style="fill:#2c7be5;fill-opacity:1;fill-rule:nonzero;stroke:none"
       d="m 0,0 h 124.952 c 12.729,0 23.064,10.326 23.064,23.067 0,12.729 -10.335,23.047 -23.064,23.047 L 0,46.114 c -12.738,0 -23.065,-10.318 -23.065,-23.047 C -23.065,10.326 -12.738,0 0,0" /></g><g
     style="fill:#2c7be5;fill-opacity:1"
     transform="matrix(0.86309608,0,0,0.86309608,184.01033,505.94822)"
     id="g3739"><path
       inkscape:connector-curvature="0"
       id="path3741"
       style="fill:#2c7be5;fill-opacity:1;fill-rule:nonzero;stroke:none"
       d="m 0,0 c 0,-12.72 10.327,-23.038 23.047,-23.038 h 101.497 c 12.749,0 23.067,10.318 23.067,23.038 0,12.749 -10.318,23.067 -23.067,23.067 H 23.047 C 10.327,23.067 0,12.749 0,0" /></g><g
     style="fill:#2c7be5;fill-opacity:1"
     transform="matrix(0.86309608,0,0,0.86309608,129.20295,486.06421)"
     id="g3743"><path
       inkscape:connector-curvature="0"
       id="path3745"
       style="fill:#2c7be5;fill-opacity:1;fill-rule:nonzero;stroke:none"
       d="M 0,0 C 12.747,0 23.046,10.318 23.046,23.038 23.046,35.787 12.747,46.105 0,46.105 h -25.064 c -12.749,0 -23.067,-10.318 -23.067,-23.067 C -48.131,10.318 -37.813,0 -25.064,0 H 0" /></g><g
     style="fill:#2c7be5;fill-opacity:1"
     transform="matrix(0.86309608,0,0,0.86309608,80.466245,685.90927)"
     id="g3747"><path
       inkscape:connector-curvature="0"
       id="path3749"
       style="fill:#2c7be5;fill-opacity:1;fill-rule:nonzero;stroke:none"
       d="m 0,0 h -4.841 c -12.732,0 -23.049,-10.299 -23.049,-23.031 0,-12.747 10.317,-23.065 23.049,-23.065 H 0 c 12.747,0 23.049,10.318 23.049,23.065 C 23.049,-10.299 12.747,0 0,0" /></g><g
     style="fill:#2c7be5;fill-opacity:1"
     transform="matrix(0.86309608,0,0,0.86309608,100.01692,365.79712)"
     id="g3751"><path
       inkscape:connector-curvature="0"
       id="path3753"
       style="fill:#2c7be5;fill-opacity:1;fill-rule:nonzero;stroke:none"
       d="m 0,0 c -10.881,-0.291 -19.28,-9.854 -19.28,-20.726 v -4.647 c 0,-10.899 8.399,-20.443 19.28,-20.716 11.181,-0.307 20.354,8.69 20.354,19.808 v 6.455 C 20.354,-8.7 11.181,0.272 0,0" /></g><g
     style="fill:#2c7be5;fill-opacity:1"
     transform="matrix(0.86309608,0,0,0.86309608,53.719503,406.03734)"
     id="g3755"><path
       inkscape:connector-curvature="0"
       id="path3757"
       style="fill:#2c7be5;fill-opacity:1;fill-rule:nonzero;stroke:none"
       d="m 0,0 h 114.862 c 12.722,0 23.022,10.317 23.022,23.04 0,12.747 -10.3,23.064 -23.022,23.064 H 0 C -12.738,46.104 -23.046,35.787 -23.046,23.04 -23.046,10.317 -12.738,0 0,0" /></g><g
     style="fill:#2c7be5;fill-opacity:1"
     transform="matrix(0.86309608,0,0,0.86309608,245.83045,666.02354)"
     id="g3759"><path
       inkscape:connector-curvature="0"
       id="path3761"
       style="fill:#2c7be5;fill-opacity:1;fill-rule:nonzero;stroke:none"
       d="m 0,0 c 0,12.731 -10.299,23.049 -23.04,23.049 h -77.233 c -12.74,0 -23.058,-10.318 -23.058,-23.049 0,-12.747 10.318,-23.056 23.058,-23.056 H -23.04 C -10.299,-23.056 0,-12.747 0,0" /></g><g
     style="fill:#2c7be5;fill-opacity:1"
     transform="matrix(0.86309608,0,0,0.86309608,270.25253,566.09738)"
     id="g3763"><path
       inkscape:connector-curvature="0"
       id="path3765"
       style="fill:#2c7be5;fill-opacity:1;fill-rule:nonzero;stroke:none"
       d="M 0,0 C 12.765,0 23.064,10.327 23.064,23.031 23.064,35.796 12.765,46.096 0,46.096 h -41.642 c -12.738,0 -23.056,-10.3 -23.056,-23.065 C -64.698,10.327 -54.38,0 -41.642,0 H 0" /></g><g
     style="fill:#2c7be5;fill-opacity:1"
     transform="matrix(0.86309608,0,0,0.86309608,739.91671,356.27527)"
     id="g3767"><path
       inkscape:connector-curvature="0"
       id="path3769"
       style="fill:#2c7be5;fill-opacity:1;fill-rule:nonzero;stroke:none"
       d="m 0,0 c -7.772,8.733 -17.448,13.32 -28.982,13.822 -11.585,0.44 -21.579,-3.214 -30.09,-10.978 -30.295,-27.626 -65.87,-42.215 -106.674,-43.754 -2.387,-0.088 -4.772,-0.115 -7.219,-0.115 -46.468,0 -86.223,16.497 -119.229,49.519 -33.013,33.015 -49.537,72.737 -49.537,119.194 0,46.722 16.524,86.575 49.537,119.572 33.006,33.022 72.761,49.537 119.229,49.537 2.447,0 4.832,-0.034 7.219,-0.131 35.53,-1.39 67.418,-13.047 95.695,-34.906 9.218,-6.824 19.578,-9.545 31.147,-8.118 11.33,1.418 20.513,6.716 27.582,15.925 7.088,9.157 9.914,19.562 8.496,31.104 -1.648,11.314 -6.937,20.538 -15.901,27.608 -43.638,33.419 -92.578,50.876 -147.019,52.233 v 0.106 h -343.361 c -12.914,0 -23.338,-10.636 -23.038,-23.638 0.315,-12.704 11.417,-22.449 24.103,-22.449 h 192.52 c 0.078,0 0.148,-0.072 0.148,-0.142 12.687,0 22.985,-10.282 22.985,-22.977 0,-12.704 -10.298,-23.013 -22.985,-23.013 h -123.365 c -14.368,0 -25.697,-13.144 -22.486,-28.066 2.272,-10.75 12.326,-18.014 23.295,-18.014 h 42.636 c 0.063,0 0.133,-0.078 0.133,-0.121 12.695,0 23.004,-10.309 23.004,-22.979 0,-12.729 -10.309,-23.011 -23.004,-23.011 h -45.435 c -12.944,0 -23.392,-10.645 -23.058,-23.657 0.326,-12.659 11.42,-22.447 24.104,-22.447 h 27.01 c 0.061,0 0.131,-0.082 0.131,-0.116 12.696,0 22.997,-10.283 22.997,-22.969 0,-12.73 -10.301,-23.004 -22.997,-23.004 h -171.917 c -14.368,0 -25.697,-13.169 -22.483,-28.084 2.269,-10.748 12.323,-18.039 23.285,-18.039 h 198.266 c 12.74,0 23.049,-10.318 23.049,-23.047 0,-12.713 -10.309,-23.058 -23.049,-23.058 h -58.728 c -12.95,0 -23.391,-10.624 -23.058,-23.637 0.318,-12.678 11.42,-22.449 24.097,-22.449 h 134.871 c 0.071,0 0.114,-0.028 0.15,-0.107 1.373,0 2.712,-0.148 4.129,-0.412 8.575,-1.62 15.495,-8.53 17.107,-17.106 2.762,-14.579 -8.982,-27.194 -23.323,-25.963 h -0.124 c -0.166,-0.042 -0.29,-0.078 -0.491,-0.078 h -85.281 c -12.722,0 -23.04,-10.336 -23.04,-23.056 0,-12.731 10.318,-23.031 23.04,-23.031 h 15.828 v -0.836 h 214.202 c 0.054,0 0.106,0.036 0.133,0.114 62.32,1.549 116.7,23.443 163.28,65.701 8.48,7.791 12.959,17.431 13.426,29.017 C 11.454,-18.505 7.782,-8.479 0,0" /></g></g><text
   xml:space="preserve"
   style="font-style:normal;font-variant:normal;font-weight:normal;font-stretch:normal;font-size:725.90350342px;line-height:1.25;font-family:Bahnschrift;-inkscape-font-specification:Bahnschrift;letter-spacing:0px;word-spacing:0px;fill:#000000;fill-opacity:1;stroke:none;stroke-width:3.78074765"
   x="870.44574"
   y="-151.33629"
   id="text4627"
   transform="scale(1,-1)"><tspan
     sodipodi:role="line"
     id="tspan4625"
     x="870.44574"
     y="-151.33629"
     style="font-style:normal;font-variant:normal;font-weight:bold;font-stretch:normal;font-family:Calibri;-inkscape-font-specification:'Calibri Bold';fill:#2c7be5;fill-opacity:1;stroke-width:3.78074765">loudpress</tspan></text>



<text
   xml:space="preserve"
   style="font-style:normal;font-variant:normal;font-weight:normal;font-stretch:normal;font-size:110.6312027px;line-height:1.25;font-family:Bahnschrift;-inkscape-font-specification:Bahnschrift;letter-spacing:0px;word-spacing:0px;fill:#000000;fill-opacity:1;stroke:none;stroke-width:0.57620418"
   x="988.20294"
   y="-302.44171"
   id="text4631"
   transform="scale(1,-1)"><tspan
     sodipodi:role="line"
     id="tspan4629"
     x="988.20294"
     y="-200.77768"
     style="font-style:normal;font-variant:normal;font-weight:normal;font-stretch:normal;font-family:Bahnschrift;-inkscape-font-specification:Bahnschrift;stroke-width:0.57620418" /></text>



</g></svg>