<svg width="4155" height="775" viewBox="0 0 4155 775" fill="none" xmlns="http://www.w3.org/2000/svg">
<path d="M1103.79 599C1088.95 599 1076.76 595.555 1067.21 588.665C1057.67 581.775 1052.91 574.09 1052.91 565.61V32.96C1052.91 23.42 1057.67 15.735 1067.21 9.90496C1076.76 4.07497 1088.95 1.15997 1103.79 1.15997C1118.1 1.15997 1130.29 4.07497 1140.35 9.90496C1150.42 15.735 1155.46 23.42 1155.46 32.96V565.61C1155.46 574.09 1150.42 581.775 1140.35 588.665C1130.29 595.555 1118.1 599 1103.79 599Z" fill="black"/>
<path d="M1399.58 606.155C1368.84 606.155 1340.49 598.735 1314.52 583.895C1288.55 568.525 1267.61 548.385 1251.71 523.475C1235.81 498.565 1227.86 471.8 1227.86 443.18V377.99C1227.86 349.37 1235.55 322.87 1250.92 298.49C1266.29 273.58 1286.96 253.705 1312.93 238.865C1339.43 224.025 1368.31 216.605 1399.58 216.605C1430.85 216.605 1459.47 224.025 1485.44 238.865C1511.94 253.175 1532.88 272.52 1548.25 296.9C1564.15 321.28 1572.1 348.31 1572.1 377.99V443.18C1572.1 471.27 1564.15 497.77 1548.25 522.68C1532.35 547.59 1511.15 567.73 1484.65 583.1C1458.68 598.47 1430.32 606.155 1399.58 606.155ZM1399.58 516.32C1412.3 516.32 1423.96 512.875 1434.56 505.985C1445.16 499.095 1453.64 490.085 1460 478.955C1466.36 467.295 1469.54 455.37 1469.54 443.18V377.99C1469.54 365.8 1466.36 354.405 1460 343.805C1453.64 333.205 1445.16 324.46 1434.56 317.57C1424.49 310.15 1412.83 306.44 1399.58 306.44C1386.86 306.44 1375.2 309.885 1364.6 316.775C1354 323.665 1345.52 332.675 1339.16 343.805C1333.33 354.405 1330.42 365.8 1330.42 377.99V443.18C1330.42 455.37 1333.33 467.295 1339.16 478.955C1345.52 490.085 1354 499.095 1364.6 505.985C1375.2 512.875 1386.86 516.32 1399.58 516.32Z" fill="black"/>
<path d="M1806.68 606.155C1774.88 606.155 1745.73 598.735 1719.23 583.895C1693.26 568.525 1672.32 548.65 1656.42 524.27C1641.05 499.36 1633.37 472.86 1633.37 444.77V253.97C1633.37 246.02 1638.4 238.6 1648.47 231.71C1659.07 224.82 1671.26 221.375 1685.04 221.375C1698.82 221.375 1710.75 224.82 1720.82 231.71C1730.89 238.6 1735.92 246.02 1735.92 253.97V444.77C1735.92 456.96 1739.1 468.355 1745.46 478.955C1751.82 489.555 1760.3 498.565 1770.9 505.985C1781.5 512.875 1793.16 516.32 1805.88 516.32C1819.13 516.32 1830.79 512.875 1840.86 505.985C1851.46 499.095 1859.94 490.085 1866.3 478.955C1872.66 467.825 1875.84 456.43 1875.84 444.77V253.175C1875.84 244.695 1880.88 237.275 1890.95 230.915C1901.55 224.555 1913.47 221.375 1926.72 221.375C1942.09 221.375 1954.55 224.555 1964.09 230.915C1973.63 237.275 1978.4 244.695 1978.4 253.175V444.77C1978.4 473.39 1970.45 500.155 1954.55 525.065C1939.18 549.445 1918.24 569.055 1891.74 583.895C1865.77 598.735 1837.42 606.155 1806.68 606.155Z" fill="black"/>
<path d="M2179.86 606.155C2154.95 606.155 2131.9 598.47 2110.7 583.1C2089.5 567.73 2072.54 547.59 2059.82 522.68C2047.1 497.77 2040.74 471.27 2040.74 443.18V377.99C2040.74 348.31 2047.1 321.28 2059.82 296.9C2072.54 272.52 2089.5 253.175 2110.7 238.865C2131.9 224.025 2155.48 216.605 2181.45 216.605C2206.36 216.605 2227.56 222.965 2245.05 235.685C2262.54 247.875 2275.53 261.655 2284.01 277.025V32.96C2284.01 23.42 2289.04 15.735 2299.11 9.90496C2309.18 4.07497 2321.64 1.15997 2336.48 1.15997C2350.79 1.15997 2362.71 4.07497 2372.25 9.90496C2381.79 15.735 2386.56 23.42 2386.56 32.96V565.61C2386.56 574.09 2381.79 581.775 2372.25 588.665C2362.71 595.555 2350.79 599 2336.48 599C2323.76 599 2312.89 595.555 2303.88 588.665C2294.87 581.775 2290.37 574.09 2290.37 565.61V543.35C2282.42 559.78 2268.11 574.355 2247.44 587.075C2227.3 599.795 2204.77 606.155 2179.86 606.155ZM2212.46 516.32C2226.24 516.32 2238.43 512.61 2249.03 505.19C2259.63 497.24 2268.11 488.76 2274.47 479.75C2280.83 470.21 2284.01 462.79 2284.01 457.49V377.99C2284.01 363.15 2280.3 350.43 2272.88 339.83C2265.99 329.23 2256.98 321.015 2245.85 315.185C2235.25 309.355 2224.38 306.44 2213.25 306.44C2200.53 306.44 2188.61 310.15 2177.48 317.57C2166.88 324.46 2158.4 333.205 2152.04 343.805C2146.21 354.405 2143.29 365.8 2143.29 377.99V443.18C2143.29 455.37 2146.21 467.03 2152.04 478.16C2158.4 489.29 2166.88 498.565 2177.48 505.985C2188.08 512.875 2199.74 516.32 2212.46 516.32Z" fill="black"/>
<path d="M2517.38 774.695C2503.07 774.695 2491.15 771.25 2481.61 764.36C2472.07 757.47 2467.3 750.05 2467.3 742.1V253.175C2467.3 243.635 2472.07 235.95 2481.61 230.12C2491.15 224.29 2502.81 221.375 2516.59 221.375C2530.37 221.375 2541.5 224.29 2549.98 230.12C2558.99 235.95 2563.49 243.635 2563.49 253.175V277.025C2572.5 261.655 2586.28 247.875 2604.83 235.685C2623.38 222.965 2645.38 216.605 2670.82 216.605C2697.85 216.605 2721.96 224.025 2743.16 238.865C2764.89 253.175 2781.85 272.52 2794.04 296.9C2806.76 321.28 2813.12 348.31 2813.12 377.99V443.18C2813.12 471.27 2806.76 497.77 2794.04 522.68C2781.32 547.59 2764.36 567.73 2743.16 583.1C2722.49 598.47 2699.44 606.155 2674 606.155C2650.68 606.155 2629.48 599.795 2610.4 587.075C2591.32 574.355 2577.8 559.78 2569.85 543.35V742.1C2569.85 750.05 2564.82 757.47 2554.75 764.36C2544.68 771.25 2532.22 774.695 2517.38 774.695ZM2640.61 516.32C2653.33 516.32 2664.72 512.875 2674.79 505.985C2685.39 498.565 2693.87 489.29 2700.23 478.16C2707.12 467.03 2710.57 455.37 2710.57 443.18V377.99C2710.57 365.8 2707.39 354.405 2701.03 343.805C2694.67 333.205 2685.92 324.46 2674.79 317.57C2664.19 310.15 2652.27 306.44 2639.02 306.44C2627.36 306.44 2616.23 309.355 2605.63 315.185C2595.56 321.015 2587.08 329.23 2580.19 339.83C2573.3 350.43 2569.85 363.15 2569.85 377.99V457.49C2569.85 462.79 2572.77 470.21 2578.6 479.75C2584.96 488.76 2593.44 497.24 2604.04 505.19C2614.64 512.61 2626.83 516.32 2640.61 516.32Z" fill="black"/>
<path d="M2928.84 599C2914.53 599 2902.6 595.555 2893.06 588.665C2883.52 581.775 2878.75 574.09 2878.75 565.61V253.175C2878.75 243.635 2883.52 235.95 2893.06 230.12C2902.6 224.29 2914.53 221.375 2928.84 221.375C2942.09 221.375 2952.95 224.29 2961.43 230.12C2970.44 235.95 2974.95 243.635 2974.95 253.175V285.77C2980.78 274.11 2988.46 263.245 2998 253.175C3008.07 242.575 3019.47 233.83 3032.19 226.94C3044.91 220.05 3058.42 216.605 3072.73 216.605H3097.38C3107.45 216.605 3116.19 221.11 3123.61 230.12C3131.03 238.6 3134.74 248.935 3134.74 261.125C3134.74 273.845 3131.03 284.71 3123.61 293.72C3116.19 302.2 3107.45 306.44 3097.38 306.44H3072.73C3057.89 306.44 3043.32 311.475 3029.01 321.545C3015.23 331.085 3003.83 344.6 2994.82 362.09C2985.81 379.05 2981.31 399.72 2981.31 424.1V565.61C2981.31 574.09 2976.27 581.775 2966.2 588.665C2956.13 595.555 2943.68 599 2928.84 599Z" fill="black"/>
<path d="M3345.64 606.155C3308.01 606.155 3274.62 599.53 3245.47 586.28C3216.85 572.5 3194.33 553.42 3177.9 529.04C3161.47 504.13 3153.25 475.51 3153.25 443.18V375.605C3153.25 346.985 3160.94 320.75 3176.31 296.9C3192.21 272.52 3213.14 253.175 3239.11 238.865C3265.61 224.025 3295.03 216.605 3327.36 216.605C3357.04 216.605 3384.07 222.965 3408.45 235.685C3433.36 248.405 3453.5 265.895 3468.87 288.155C3484.24 310.415 3491.92 336.385 3491.92 366.065C3491.92 388.855 3488.21 405.285 3480.79 415.355C3473.37 424.895 3463.83 430.99 3452.17 433.64C3441.04 435.76 3429.38 436.82 3417.19 436.82H3255.81V448.745C3255.81 471.535 3264.29 490.085 3281.25 504.395C3298.74 518.175 3321.26 525.065 3348.82 525.065C3366.31 525.065 3380.89 522.415 3392.55 517.115C3404.21 511.815 3414.28 506.78 3422.76 502.01C3431.24 497.24 3439.19 494.855 3446.61 494.855C3454.56 494.855 3461.45 497.505 3467.28 502.805C3473.11 508.105 3477.61 514.465 3480.79 521.885C3483.97 528.775 3485.56 534.87 3485.56 540.17C3485.56 549.18 3479.73 558.985 3468.07 569.585C3456.94 579.655 3440.78 588.4 3419.58 595.82C3398.91 602.71 3374.26 606.155 3345.64 606.155ZM3255.81 376.4H3371.88C3380.89 376.4 3386.98 375.075 3390.16 372.425C3393.87 369.245 3395.73 363.415 3395.73 354.935C3395.73 342.745 3392.28 331.88 3385.39 322.34C3379.03 312.8 3370.55 305.38 3359.95 300.08C3349.88 294.78 3338.49 292.13 3325.77 292.13C3313.58 292.13 3302.18 294.78 3291.58 300.08C3280.98 304.85 3272.24 312.005 3265.35 321.545C3258.99 330.555 3255.81 341.42 3255.81 354.14V376.4Z" fill="black"/>
<path d="M3676.64 606.155C3650.14 606.155 3625.76 602.975 3603.5 596.615C3581.77 589.725 3564.55 580.98 3551.83 570.38C3539.64 559.78 3533.54 548.915 3533.54 537.785C3533.54 531.955 3534.87 525.595 3537.52 518.705C3540.7 511.815 3544.67 505.72 3549.44 500.42C3554.74 495.12 3560.84 492.47 3567.73 492.47C3575.15 492.47 3582.83 495.65 3590.78 502.01C3599.26 507.84 3609.6 513.67 3621.79 519.5C3634.51 525.33 3652 528.245 3674.26 528.245C3698.11 528.245 3713.74 524.535 3721.16 517.115C3729.11 509.695 3733.09 502.01 3733.09 494.06C3733.09 482.4 3728.32 473.39 3718.78 467.03C3709.77 460.67 3698.11 455.635 3683.8 451.925C3669.49 447.685 3654.12 443.18 3637.69 438.41C3621.79 433.64 3606.68 427.545 3592.37 420.125C3578.06 412.175 3566.4 401.575 3557.39 388.325C3548.38 374.545 3543.88 356.79 3543.88 335.06C3543.88 315.98 3548.38 297.43 3557.39 279.41C3566.4 261.39 3581.24 246.55 3601.91 234.89C3622.58 222.7 3650.67 216.605 3686.18 216.605C3707.91 216.605 3728.32 218.99 3747.4 223.76C3767.01 228 3782.91 234.095 3795.1 242.045C3807.29 249.995 3813.38 258.74 3813.38 268.28C3813.38 273.05 3811.79 279.41 3808.61 287.36C3805.43 294.78 3800.93 301.67 3795.1 308.03C3789.8 314.39 3783.17 317.57 3775.22 317.57C3769.39 317.57 3762.24 315.715 3753.76 312.005C3745.81 307.765 3736.53 303.79 3725.93 300.08C3715.33 296.37 3702.61 294.515 3687.77 294.515C3674.52 294.515 3663.92 296.37 3655.97 300.08C3648.02 303.79 3642.19 308.295 3638.48 313.595C3634.77 318.895 3632.92 324.46 3632.92 330.29C3632.92 339.83 3637.42 347.25 3646.43 352.55C3655.44 357.85 3667.1 362.355 3681.41 366.065C3696.25 369.775 3711.62 374.015 3727.52 378.785C3743.95 383.025 3759.32 389.385 3773.63 397.865C3788.47 406.345 3800.4 418.005 3809.41 432.845C3818.42 447.155 3822.92 465.97 3822.92 489.29C3822.92 524.8 3810.2 553.155 3784.76 574.355C3759.85 595.555 3723.81 606.155 3676.64 606.155Z" fill="black"/>
<path d="M4008.15 606.155C3981.65 606.155 3957.27 602.975 3935.01 596.615C3913.28 589.725 3896.05 580.98 3883.33 570.38C3871.14 559.78 3865.05 548.915 3865.05 537.785C3865.05 531.955 3866.38 525.595 3869.02 518.705C3872.2 511.815 3876.18 505.72 3880.95 500.42C3886.25 495.12 3892.34 492.47 3899.23 492.47C3906.65 492.47 3914.34 495.65 3922.29 502.01C3930.77 507.84 3941.1 513.67 3953.29 519.5C3966.01 525.33 3983.5 528.245 4005.76 528.245C4029.61 528.245 4045.25 524.535 4052.67 517.115C4060.62 509.695 4064.59 502.01 4064.59 494.06C4064.59 482.4 4059.82 473.39 4050.28 467.03C4041.27 460.67 4029.61 455.635 4015.3 451.925C4000.99 447.685 3985.62 443.18 3969.19 438.41C3953.29 433.64 3938.19 427.545 3923.88 420.125C3909.57 412.175 3897.91 401.575 3888.9 388.325C3879.89 374.545 3875.38 356.79 3875.38 335.06C3875.38 315.98 3879.89 297.43 3888.9 279.41C3897.91 261.39 3912.75 246.55 3933.42 234.89C3954.09 222.7 3982.18 216.605 4017.69 216.605C4039.42 216.605 4059.82 218.99 4078.9 223.76C4098.51 228 4114.42 234.095 4126.6 242.045C4138.79 249.995 4144.89 258.74 4144.89 268.28C4144.89 273.05 4143.3 279.41 4140.12 287.36C4136.94 294.78 4132.44 301.67 4126.6 308.03C4121.31 314.39 4114.68 317.57 4106.73 317.57C4100.9 317.57 4093.74 315.715 4085.26 312.005C4077.31 307.765 4068.04 303.79 4057.44 300.08C4046.84 296.37 4034.12 294.515 4019.28 294.515C4006.03 294.515 3995.43 296.37 3987.48 300.08C3979.53 303.79 3973.7 308.295 3969.99 313.595C3966.28 318.895 3964.42 324.46 3964.42 330.29C3964.42 339.83 3968.93 347.25 3977.94 352.55C3986.95 357.85 3998.61 362.355 4012.92 366.065C4027.76 369.775 4043.13 374.015 4059.03 378.785C4075.46 383.025 4090.83 389.385 4105.14 397.865C4119.98 406.345 4131.91 418.005 4140.92 432.845C4149.93 447.155 4154.43 465.97 4154.43 489.29C4154.43 524.8 4141.71 553.155 4116.27 574.355C4091.36 595.555 4055.32 606.155 4008.15 606.155Z" fill="black"/>
<path d="M385.474 544.406H266.356C251.334 544.406 239.146 556.609 239.146 571.631C239.146 586.653 251.334 598.817 266.356 598.817H385.474C400.496 598.817 412.684 586.653 412.684 571.631C412.684 556.609 400.496 544.406 385.474 544.406Z" fill="black"/>
<path d="M181.818 492.273H329.333C344.355 492.273 356.56 480.085 356.56 465.046C356.56 450.024 344.355 437.836 329.333 437.836H181.818C166.779 437.836 154.591 450.024 154.591 465.046C154.591 480.085 166.779 492.273 181.818 492.273Z" fill="black"/>
<path d="M205.414 246.148C205.414 261.17 217.602 273.349 232.624 273.349H352.441C367.489 273.349 379.668 261.17 379.668 246.148C379.668 231.099 367.489 218.92 352.441 218.92H232.624C217.602 218.92 205.414 231.099 205.414 246.148Z" fill="black"/>
<path d="M130.445 273.349C145.493 273.349 157.655 261.17 157.655 246.148C157.655 231.099 145.493 218.92 130.445 218.92H100.862C85.8142 218.92 73.6349 231.099 73.6349 246.148C73.6349 261.17 85.8142 273.349 100.862 273.349H130.445Z" fill="black"/>
<path d="M63.7891 0.00886056H58.0709C43.0402 0.00886056 30.861 12.1706 30.861 27.1925C30.861 42.2407 43.0402 54.42 58.0709 54.42H63.7891C78.8373 54.42 90.9991 42.2407 90.9991 27.1925C90.9991 12.1706 78.8373 0.00886056 63.7891 0.00886056Z" fill="black"/>
<path d="M90.5295 437.848C77.6838 438.189 67.7661 449.481 67.7661 462.318V467.798C67.7661 480.668 77.6838 491.936 90.5295 492.259C103.734 492.618 114.556 482.001 114.556 468.873V461.252C114.556 448.116 103.734 437.523 90.5295 437.848Z" fill="black"/>
<path d="M27.2099 382.809H162.799C177.821 382.809 189.984 370.63 189.984 355.608C189.984 340.562 177.821 328.38 162.799 328.38H27.2099C12.1705 328.38 0 340.562 0 355.608C0 370.63 12.1705 382.809 27.2099 382.809Z" fill="black"/>
<path d="M289.975 27.2013C289.975 12.1793 277.813 0 262.773 0H171.599C156.56 0 144.372 12.1793 144.372 27.2013C144.372 42.2495 156.56 54.4287 171.599 54.4287H262.773C277.813 54.4287 289.975 42.2495 289.975 27.2013Z" fill="black"/>
<path d="M323.374 163.881C338.44 163.881 350.601 151.693 350.601 136.695C350.601 121.623 338.44 109.468 323.374 109.468H274.211C259.18 109.468 246.992 121.623 246.992 136.695C246.992 151.693 259.18 163.881 274.211 163.881H323.374Z" fill="black"/>
<path d="M965.766 450.874C956.591 440.565 945.173 435.153 931.558 434.557C917.884 434.034 906.081 438.345 896.034 447.52C860.272 480.134 818.278 497.349 770.099 499.167C767.282 499.27 764.466 499.303 761.579 499.303C706.725 499.303 659.797 479.826 620.834 440.838C581.853 401.867 562.352 354.974 562.352 300.135C562.352 244.981 581.853 197.926 620.834 158.972C659.797 119.991 706.725 100.497 761.579 100.497C764.466 100.497 767.282 100.532 770.099 100.65C812.049 102.297 849.688 116.056 883.079 141.859C893.96 149.915 906.192 153.125 919.848 151.443C933.223 149.771 944.062 143.507 952.409 132.64C960.773 121.827 964.103 109.551 962.438 95.9214C960.492 82.5644 954.245 71.6743 943.661 63.3341C892.151 23.8772 834.368 3.27258 770.099 1.66659V1.5399H364.753C349.508 1.5399 337.202 14.1036 337.56 29.4489C337.936 44.4468 351.038 55.951 366.016 55.951H593.292C593.377 55.951 593.462 56.0362 593.462 56.1214C608.441 56.1214 620.604 68.2591 620.604 83.2396C620.604 98.2353 608.441 110.406 593.462 110.406H447.825C430.867 110.406 417.492 125.924 421.281 143.539C423.962 156.232 435.833 164.81 448.782 164.81H499.122C499.19 164.81 499.275 164.896 499.275 164.955C514.256 164.955 526.435 177.125 526.435 192.079C526.435 207.11 514.256 219.248 499.275 219.248H445.64C430.353 219.248 418.021 231.812 418.414 247.166C418.797 262.12 431.898 273.668 446.87 273.668H478.758C478.834 273.668 478.911 273.762 478.911 273.812C493.898 273.812 506.062 285.95 506.062 300.928C506.062 315.95 493.898 328.079 478.911 328.079H275.961C258.994 328.079 245.626 343.63 249.417 361.23C252.096 373.923 263.969 382.525 276.909 382.525H510.969C526.009 382.525 538.171 394.704 538.171 409.735C538.171 424.748 526.009 436.954 510.969 436.954H441.637C426.35 436.954 414.018 449.502 414.411 464.865C414.794 479.826 427.895 491.367 442.858 491.367H602.082C602.167 491.367 602.211 491.391 602.253 491.485C603.874 491.485 605.454 491.664 607.136 491.972C617.25 493.884 625.427 502.043 627.321 512.175C630.59 529.382 616.72 544.277 599.794 542.824H599.65C599.454 542.868 599.309 542.911 599.069 542.911H498.388C483.375 542.911 471.196 555.115 471.196 570.137C471.196 585.159 483.375 597.322 498.388 597.322H517.072V598.303H769.943C770.013 598.303 770.072 598.262 770.099 598.175C843.672 596.341 907.872 570.497 962.865 520.607C972.868 511.414 978.16 500.03 978.715 486.357C979.296 472.718 974.959 460.886 965.766 450.874Z" fill="black"/>
</svg>
