<svg width="979" height="979" viewBox="0 0 979 979" fill="none" xmlns="http://www.w3.org/2000/svg">
<path d="M385.474 734.406H266.356C251.334 734.406 239.146 746.609 239.146 761.631C239.146 776.653 251.334 788.817 266.356 788.817H385.474C400.496 788.817 412.684 776.653 412.684 761.631C412.684 746.609 400.496 734.406 385.474 734.406Z" fill="white"/>
<path d="M181.818 682.273H329.333C344.355 682.273 356.56 670.085 356.56 655.046C356.56 640.024 344.355 627.836 329.333 627.836H181.818C166.779 627.836 154.591 640.024 154.591 655.046C154.591 670.085 166.779 682.273 181.818 682.273Z" fill="white"/>
<path d="M205.414 436.148C205.414 451.17 217.602 463.349 232.624 463.349H352.441C367.489 463.349 379.668 451.17 379.668 436.148C379.668 421.099 367.489 408.92 352.441 408.92H232.624C217.602 408.92 205.414 421.099 205.414 436.148Z" fill="white"/>
<path d="M130.445 463.349C145.493 463.349 157.655 451.17 157.655 436.148C157.655 421.099 145.493 408.92 130.445 408.92H100.862C85.8142 408.92 73.6349 421.099 73.6349 436.148C73.6349 451.17 85.8142 463.349 100.862 463.349H130.445Z" fill="white"/>
<path d="M63.7891 190.009H58.0709C43.0402 190.009 30.861 202.171 30.861 217.193C30.861 232.241 43.0402 244.42 58.0709 244.42H63.7891C78.8373 244.42 90.999 232.241 90.999 217.193C90.999 202.171 78.8373 190.009 63.7891 190.009Z" fill="white"/>
<path d="M90.5296 627.848C77.6839 628.189 67.7661 639.481 67.7661 652.318V657.798C67.7661 670.668 77.6839 681.936 90.5296 682.259C103.734 682.618 114.556 672.001 114.556 658.873V651.252C114.556 638.116 103.734 627.523 90.5296 627.848Z" fill="white"/>
<path d="M27.2099 572.809H162.799C177.821 572.809 189.984 560.63 189.984 545.608C189.984 530.562 177.821 518.38 162.799 518.38H27.2099C12.1705 518.38 0 530.562 0 545.608C0 560.63 12.1705 572.809 27.2099 572.809Z" fill="white"/>
<path d="M289.975 217.201C289.975 202.179 277.813 190 262.773 190H171.599C156.56 190 144.372 202.179 144.372 217.201C144.372 232.249 156.56 244.429 171.599 244.429H262.773C277.813 244.429 289.975 232.249 289.975 217.201Z" fill="white"/>
<path d="M323.374 353.881C338.44 353.881 350.601 341.693 350.601 326.695C350.601 311.623 338.44 299.468 323.374 299.468H274.211C259.18 299.468 246.992 311.623 246.992 326.695C246.992 341.693 259.18 353.881 274.211 353.881H323.374Z" fill="white"/>
<path d="M965.766 640.874C956.591 630.566 945.172 625.153 931.558 624.557C917.884 624.035 906.08 628.346 896.034 637.52C860.272 670.134 818.278 687.35 770.098 689.168C767.282 689.27 764.465 689.303 761.579 689.303C706.724 689.303 659.797 669.826 620.834 630.839C581.853 591.867 562.352 544.974 562.352 490.135C562.352 434.981 581.853 387.927 620.834 348.972C659.797 309.992 706.724 290.497 761.579 290.497C764.465 290.497 767.282 290.532 770.098 290.65C812.048 292.298 849.687 306.056 883.079 331.859C893.96 339.915 906.192 343.125 919.848 341.443C933.223 339.771 944.062 333.507 952.409 322.641C960.773 311.827 964.103 299.552 962.438 285.922C960.491 272.565 954.245 261.675 943.66 253.334C892.151 213.877 834.368 193.273 770.098 191.667V191.54H364.753C349.508 191.54 337.202 204.104 337.56 219.449C337.936 234.447 351.037 245.951 366.016 245.951H589.553H593.292C593.377 245.951 593.462 246.036 593.462 246.122C608.44 246.122 620.604 258.259 620.604 273.24C620.604 288.236 608.44 300.406 593.462 300.406H531.24H447.825C430.867 300.406 417.492 315.924 421.281 333.54C423.962 346.232 435.833 354.811 448.782 354.811H483.375H499.122C499.19 354.811 499.275 354.896 499.275 354.955C514.255 354.955 526.435 367.125 526.435 382.08C526.435 397.11 514.255 409.248 499.275 409.248H445.64C430.353 409.248 418.021 421.812 418.414 437.166C418.797 452.12 431.898 463.668 446.87 463.668H478.758C478.834 463.668 478.911 463.762 478.911 463.812C493.898 463.812 506.062 475.95 506.062 490.928C506.062 505.95 493.898 518.079 478.911 518.079H464.555H275.96C258.994 518.079 245.626 533.63 249.417 551.23C252.096 563.923 263.969 572.525 276.909 572.525H474.209H510.969C526.009 572.525 538.17 584.704 538.17 599.735C538.17 614.748 526.009 626.954 510.969 626.954H495.768H441.637C426.35 626.954 414.018 639.502 414.411 654.865C414.794 669.826 427.895 681.367 442.858 681.367H532.623H602.082C602.167 681.367 602.211 681.391 602.252 681.485C603.874 681.485 605.453 681.664 607.136 681.972C617.25 683.884 625.427 692.043 627.321 702.175C630.59 719.382 616.719 734.277 599.794 732.824H599.65C599.453 732.868 599.309 732.911 599.069 732.911H587.888H498.388C483.375 732.911 471.195 745.115 471.195 760.137C471.195 775.159 483.375 787.323 498.388 787.323H517.072V788.304H769.943C770.013 788.304 770.072 788.262 770.098 788.175C843.672 786.342 907.872 760.497 962.864 710.607C972.867 701.415 978.159 690.031 978.714 676.357C979.296 662.718 974.958 650.886 965.766 640.874Z" fill="white"/>
</svg>
