<svg width="979" height="599" viewBox="0 0 979 599" fill="none" xmlns="http://www.w3.org/2000/svg">
<path d="M385.474 544.406H266.356C251.334 544.406 239.146 556.609 239.146 571.631C239.146 586.653 251.334 598.817 266.356 598.817H385.474C400.496 598.817 412.684 586.653 412.684 571.631C412.684 556.609 400.496 544.406 385.474 544.406Z" fill="black"/>
<path d="M181.818 492.273H329.333C344.355 492.273 356.56 480.085 356.56 465.046C356.56 450.024 344.355 437.836 329.333 437.836H181.818C166.779 437.836 154.591 450.024 154.591 465.046C154.591 480.085 166.779 492.273 181.818 492.273Z" fill="black"/>
<path d="M205.414 246.148C205.414 261.17 217.602 273.349 232.624 273.349H352.441C367.489 273.349 379.668 261.17 379.668 246.148C379.668 231.099 367.489 218.92 352.441 218.92H232.624C217.602 218.92 205.414 231.099 205.414 246.148Z" fill="black"/>
<path d="M130.445 273.349C145.493 273.349 157.655 261.17 157.655 246.148C157.655 231.099 145.493 218.92 130.445 218.92H100.862C85.8143 218.92 73.635 231.099 73.635 246.148C73.635 261.17 85.8143 273.349 100.862 273.349H130.445Z" fill="black"/>
<path d="M63.7892 0.00883102H58.071C43.0403 0.00883102 30.8611 12.1706 30.8611 27.1925C30.8611 42.2407 43.0403 54.4199 58.071 54.4199H63.7892C78.8374 54.4199 90.9992 42.2407 90.9992 27.1925C90.9992 12.1706 78.8374 0.00883102 63.7892 0.00883102Z" fill="black"/>
<path d="M90.5296 437.848C77.6839 438.189 67.7661 449.481 67.7661 462.318V467.798C67.7661 480.668 77.6839 491.936 90.5296 492.259C103.734 492.618 114.556 482.001 114.556 468.873V461.252C114.556 448.116 103.734 437.523 90.5296 437.848Z" fill="black"/>
<path d="M27.2099 382.809H162.799C177.821 382.809 189.984 370.63 189.984 355.608C189.984 340.562 177.821 328.38 162.799 328.38H27.2099C12.1705 328.38 0 340.562 0 355.608C0 370.63 12.1705 382.809 27.2099 382.809Z" fill="black"/>
<path d="M289.975 27.2013C289.975 12.1793 277.813 1.52588e-05 262.773 1.52588e-05H171.599C156.56 1.52588e-05 144.372 12.1793 144.372 27.2013C144.372 42.2495 156.56 54.4287 171.599 54.4287H262.773C277.813 54.4287 289.975 42.2495 289.975 27.2013Z" fill="black"/>
<path d="M323.374 163.881C338.44 163.881 350.601 151.693 350.601 136.695C350.601 121.623 338.44 109.468 323.374 109.468H274.211C259.18 109.468 246.992 121.623 246.992 136.695C246.992 151.693 259.18 163.881 274.211 163.881H323.374Z" fill="black"/>
<path d="M965.766 450.874C956.591 440.565 945.173 435.153 931.558 434.557C917.884 434.034 906.081 438.345 896.034 447.52C860.272 480.134 818.278 497.349 770.099 499.167C767.282 499.27 764.466 499.303 761.579 499.303C706.725 499.303 659.797 479.826 620.834 440.838C581.853 401.867 562.352 354.974 562.352 300.135C562.352 244.981 581.853 197.926 620.834 158.972C659.797 119.991 706.725 100.497 761.579 100.497C764.466 100.497 767.282 100.532 770.099 100.65C812.049 102.297 849.688 116.056 883.079 141.859C893.96 149.915 906.192 153.125 919.848 151.443C933.223 149.771 944.063 143.507 952.409 132.64C960.773 121.827 964.104 109.551 962.439 95.9214C960.492 82.5645 954.245 71.6743 943.661 63.3342C892.151 23.8772 834.369 3.27258 770.099 1.66656V1.53992H364.753C349.508 1.53992 337.202 14.1036 337.56 29.4489C337.936 44.4468 351.038 55.951 366.016 55.951H589.553H593.292C593.377 55.951 593.462 56.0362 593.462 56.1214C608.441 56.1214 620.605 68.2591 620.605 83.2396C620.605 98.2353 608.441 110.406 593.462 110.406H531.24H447.825C430.867 110.406 417.492 125.924 421.281 143.539C423.962 156.232 435.833 164.81 448.782 164.81H483.375H499.122C499.19 164.81 499.275 164.896 499.275 164.955C514.256 164.955 526.435 177.125 526.435 192.079C526.435 207.11 514.256 219.248 499.275 219.248H445.64C430.353 219.248 418.021 231.812 418.415 247.166C418.797 262.12 431.898 273.668 446.87 273.668H478.758C478.834 273.668 478.911 273.762 478.911 273.812C493.898 273.812 506.062 285.95 506.062 300.928C506.062 315.95 493.898 328.079 478.911 328.079H464.555H275.961C258.994 328.079 245.626 343.63 249.417 361.23C252.096 373.923 263.969 382.525 276.909 382.525H474.209H510.969C526.009 382.525 538.171 394.704 538.171 409.735C538.171 424.748 526.009 436.954 510.969 436.954H495.768H441.637C426.351 436.954 414.018 449.502 414.412 464.865C414.794 479.826 427.895 491.367 442.858 491.367H532.623H602.082C602.167 491.367 602.211 491.391 602.253 491.485C603.874 491.485 605.454 491.664 607.136 491.972C617.251 493.884 625.427 502.043 627.321 512.175C630.59 529.382 616.72 544.277 599.795 542.824H599.65C599.454 542.868 599.309 542.911 599.069 542.911H587.888H498.388C483.375 542.911 471.196 555.115 471.196 570.137C471.196 585.158 483.375 597.322 498.388 597.322H517.072V598.303H769.943C770.013 598.303 770.072 598.262 770.099 598.175C843.672 596.341 907.872 570.497 962.865 520.607C972.868 511.414 978.16 500.03 978.715 486.357C979.296 472.718 974.959 460.886 965.766 450.874Z" fill="black"/>
</svg>
