<svg width="1653" height="416" viewBox="0 0 1653 416" fill="none" xmlns="http://www.w3.org/2000/svg">
<g clip-path="url(#clip0_1286_5819)">
<path d="M57.5766 272.214C59.5438 276.773 61.6789 281.237 64.006 285.556C65.7093 285.556 67.3886 285.412 69.0919 285.412C80.9187 285.383 92.6339 287.701 103.559 292.232C114.484 296.763 124.402 303.416 132.738 311.808L133.386 312.504C135.113 307.849 137.056 303.289 139.167 298.826C120.053 281.274 95.0395 271.552 69.0919 271.59C65.2451 271.592 61.4011 271.8 57.5766 272.214ZM47.8365 241.019C48.7722 245.578 49.9237 250.066 51.2432 254.481C57.1531 253.614 63.1187 253.181 69.0919 253.185C98.1187 253.092 126.214 263.43 148.26 282.317C150.659 278.357 153.322 274.518 156.105 270.798C131.702 250.479 100.939 239.378 69.1879 239.435C62.0861 239.449 54.9959 240.01 47.9805 241.115L47.8365 241.019ZM74.2258 301.97C78.334 307.795 82.8135 313.35 87.6364 318.599C101.94 323.35 113.931 333.313 121.223 346.507C122.254 347.155 123.286 347.802 124.341 348.426C125.2 342.611 126.361 336.844 127.82 331.149C121.506 322.762 113.468 315.826 104.248 310.809C95.0278 305.792 84.8395 302.811 74.3697 302.066L74.2258 301.97ZM69.0439 208.384C60.8214 208.382 52.6101 208.992 44.4779 210.208C44.4779 214.863 44.7658 219.518 45.2216 224.078C53.1025 222.845 61.0673 222.227 69.0439 222.23C104.834 222.13 139.512 234.664 166.972 257.624C170.091 254.241 173.354 250.953 176.76 247.834C146.707 222.355 108.583 208.382 69.1879 208.408L69.0439 208.384Z" fill="#316DF0"/>
<path d="M228.651 370.071C233.449 369.471 238.007 368.703 242.589 367.671C243.096 359.391 245.761 351.387 250.32 344.457C254.879 337.527 261.173 331.911 268.575 328.169C275.977 324.427 284.23 322.689 292.512 323.128C300.795 323.566 308.818 326.166 315.784 330.669C319.302 327.55 322.701 324.286 325.979 320.879C316.861 314.271 306.101 310.302 294.877 309.405C283.653 308.508 272.399 310.718 262.348 315.794C252.296 320.869 243.835 328.613 237.892 338.179C231.948 347.744 228.751 358.761 228.651 370.023V370.071ZM190.962 370.551C195.52 371.007 200.151 371.247 204.805 371.343C204.805 371.127 204.805 370.887 204.805 370.671C204.802 354.834 209.212 339.309 217.538 325.838C225.863 312.367 237.777 301.483 251.942 294.406C266.106 287.33 281.962 284.34 297.73 285.774C313.499 287.207 328.556 293.007 341.213 302.521C343.9 298.762 346.419 294.875 348.77 290.859C334.023 279.992 316.552 273.428 298.299 271.897C280.046 270.365 261.726 273.925 245.375 282.183C229.024 290.44 215.282 303.07 205.676 318.671C196.07 334.271 190.977 352.229 190.962 370.551ZM290.018 203.657C249.564 203.648 210.482 218.331 180.036 244.975C149.59 271.62 129.85 308.415 124.485 348.522C128.732 350.922 133.074 353.322 137.56 355.529C140.13 329.887 149.12 305.306 163.7 284.059C178.28 262.812 197.98 245.584 220.978 233.967C243.976 222.35 269.531 216.72 295.28 217.596C321.029 218.472 346.142 225.826 368.298 238.979C369.21 234.18 369.954 229.381 370.433 224.317C345.805 210.742 318.138 203.633 290.018 203.657ZM155.673 362.8C160.135 364.304 164.693 365.632 169.347 366.784C170.027 345.062 176.548 323.925 188.226 305.599C199.904 287.272 216.305 272.434 235.704 262.647C255.103 252.859 276.781 248.484 298.456 249.982C320.131 251.479 341.001 258.795 358.87 271.158C360.693 266.791 362.293 262.344 363.668 257.816C343.906 244.923 321.105 237.45 297.547 236.145C273.989 234.841 250.502 239.75 229.438 250.382C208.374 261.014 190.473 276.995 177.527 296.725C164.581 316.454 157.044 339.24 155.673 362.8Z" fill="#316DF0"/>
<path d="M207.948 0C166.819 0 126.615 12.199 92.4181 35.0543C58.2213 57.9097 31.5682 90.3948 15.8292 128.402C0.0901005 166.409 -4.02795 208.231 3.99575 248.579C12.0194 288.927 31.8245 325.989 60.9065 355.078C89.9885 384.168 127.041 403.978 167.379 412.003C207.717 420.029 249.528 415.91 287.526 400.167C325.523 384.424 358 357.764 380.85 323.559C403.699 289.353 415.895 249.139 415.895 208C415.895 152.835 393.986 99.9294 354.989 60.9218C315.991 21.9142 263.099 0 207.948 0V0ZM336.008 336.092C305.659 366.563 265.404 385.155 222.534 388.5L207.948 413.768L193.361 388.5C150.487 385.134 110.222 366.57 79.814 336.15C49.4061 305.729 30.8525 265.452 27.4929 222.566L2.39912 208L27.6129 193.434C30.9647 150.562 49.503 110.293 79.8923 79.8745C110.281 49.4556 150.526 30.8834 193.385 27.4998L207.948 2.39963L222.51 27.6198C265.371 30.9724 305.629 49.5154 336.041 79.9123C366.452 110.309 385.019 150.564 388.402 193.434L413.616 208L388.402 222.566C385.064 265.455 366.476 305.73 336.008 336.092Z" fill="#316DF0"/>
<path d="M569.241 90.2021H602.659L696.221 307.321H652.007L631.783 257.648H537.669L518.045 307.321H474.863L569.241 90.2021ZM618.301 224.581L584.882 136.203L550.84 224.533L618.301 224.581Z" fill="#316DF0"/>
<path d="M913.213 291.387C886.44 305.689 856.5 312.84 823.393 312.84C807.656 313.022 792.021 310.28 777.284 304.753C763.746 299.691 751.416 291.852 741.087 281.739C730.758 271.627 722.658 259.464 717.308 246.034C711.438 231.309 708.519 215.573 708.72 199.721C708.51 183.511 711.426 167.411 717.308 152.305C722.649 138.687 730.743 126.319 741.083 115.974C751.409 105.822 763.739 97.9353 777.284 92.8177C792.022 87.2597 807.668 84.5009 823.417 84.683C839.154 84.584 854.832 86.6017 870.03 90.682C884.493 94.6506 897.827 101.948 908.967 111.991L880.442 140.81C873.194 133.892 864.582 128.563 855.156 125.165C845.094 121.465 834.45 119.595 823.729 119.646C813.252 119.491 802.859 121.527 793.214 125.621C784.338 129.467 776.357 135.113 769.775 142.202C763.163 149.363 758.005 157.741 754.589 166.87C750.956 176.583 749.135 186.88 749.215 197.25C749.104 208.208 750.923 219.101 754.589 229.429C757.918 238.836 763.079 247.49 769.775 254.889C776.345 262.046 784.325 267.765 793.214 271.686C802.829 275.893 813.235 277.988 823.729 277.829C833.044 277.871 842.338 276.946 851.462 275.07C859.582 273.439 867.394 270.54 874.612 266.479V215.343H830.063V180.38H913.141L913.213 291.387Z" fill="#316DF0"/>
<path d="M957.979 90.2021H996.627V307.321H957.979V90.2021Z" fill="#316DF0"/>
<path d="M1193.13 141.122C1185.13 132.532 1177.42 126.804 1169.98 123.941C1162.8 121.135 1155.16 119.679 1147.45 119.646C1136.98 119.494 1126.58 121.529 1116.94 125.621C1108.06 129.467 1100.08 135.113 1093.5 142.202C1086.89 149.363 1081.73 157.741 1078.31 166.87C1074.69 176.584 1072.87 186.881 1072.96 197.25C1072.84 208.207 1074.66 219.1 1078.31 229.429C1081.64 238.836 1086.8 247.49 1093.5 254.889C1100.07 262.046 1108.05 267.765 1116.94 271.686C1126.55 275.891 1136.96 277.986 1147.45 277.829C1156.38 277.824 1165.18 275.694 1173.12 271.614C1182.23 266.71 1190.13 259.851 1196.27 251.529L1228.16 274.206C1219.06 287.111 1206.62 297.29 1192.17 303.649C1177.95 309.81 1162.59 312.94 1147.09 312.84C1131.36 313.019 1115.74 310.277 1101.01 304.753C1087.47 299.698 1075.13 291.861 1064.8 281.747C1054.47 271.634 1046.38 259.468 1041.03 246.034C1035.15 231.312 1032.23 215.574 1032.44 199.721C1032.27 183.5 1035.23 167.398 1041.18 152.305C1046.5 138.684 1054.59 126.314 1064.93 115.974C1075.25 105.83 1087.57 97.944 1101.1 92.8177C1115.84 87.2618 1131.49 84.5031 1147.24 84.683C1161.26 84.5529 1175.18 87.212 1188.16 92.5058C1201.77 98.5032 1213.8 107.59 1223.29 119.046L1193.13 141.122Z" fill="#316DF0"/>
<path d="M1342.76 90.2021H1376.18L1469.74 307.321H1425.6L1405.37 257.648H1311.16L1291.54 307.321H1248.36L1342.76 90.2021ZM1391.79 224.581L1358.38 136.203L1324.26 224.533L1391.79 224.581Z" fill="#316DF0"/>
<path d="M1500.01 90.2021H1572.99C1583.14 90.1787 1593.26 91.2081 1603.2 93.2736C1612.29 95.0859 1620.97 98.5681 1628.79 103.544C1636.19 108.411 1642.25 115.052 1646.43 122.861C1651.08 132.232 1653.31 142.617 1652.93 153.072C1652.93 166.782 1650.58 177.821 1645.9 186.187C1641.45 194.296 1634.87 201.034 1626.87 205.672C1618.29 210.489 1608.89 213.663 1599.14 215.031C1588.23 216.675 1577.21 217.477 1566.18 217.431H1538.59V307.273H1500.01V90.2021ZM1561.96 184.364C1567.47 184.364 1573.18 184.148 1579.13 183.74C1584.76 183.368 1590.29 182.096 1595.52 179.972C1600.35 178.06 1604.59 174.886 1607.78 170.782C1611.24 165.747 1612.93 159.702 1612.58 153.6C1612.87 147.916 1611.37 142.283 1608.28 137.499C1605.45 133.544 1601.65 130.38 1597.25 128.308C1592.5 126.091 1587.42 124.688 1582.2 124.157C1576.92 123.554 1571.6 123.249 1566.28 123.245H1538.69V184.364H1561.96Z" fill="#316DF0"/>
</g>
<defs>
<clipPath id="clip0_1286_5819">
<rect width="1653" height="416" fill="white"/>
</clipPath>
</defs>
</svg>
